<?xml version="1.0" encoding="iso-8859-1"?>
<!-- Generator: Adobe Illustrator 19.0.0, SVG Export Plug-In . SVG Version: 6.00 Build 0)  -->
<svg version="1.1" id="Capa_1" xmlns="http://www.w3.org/2000/svg" xmlns:xlink="http://www.w3.org/1999/xlink" x="0px" y="0px"
	 viewBox="0 0 512 512" style="enable-background:new 0 0 512 512;" xml:space="preserve">
<path style="fill:#FFC107;" d="M304,128H16c-8.837,0-16,7.163-16,16v304c0,35.346,28.654,64,64,64h240c8.837,0,16-7.163,16-16V144
	C320,135.163,312.837,128,304,128z"/>
<path style="fill:#2196F3;" d="M496,256H240c-8.837,0-16,7.163-16,16v176c0,35.346,28.654,64,64,64h160c35.346,0,64-28.654,64-64
	V272C512,263.163,504.837,256,496,256z"/>
<path d="M176,512H64c-35.346,0-64-28.654-64-64V144c0-8.837,7.163-16,16-16h288c8.837,0,16,7.163,16,16v32c0,8.837-7.163,16-16,16
	s-16-7.163-16-16v-16H32v288c0,17.673,14.327,32,32,32h112c8.837,0,16,7.163,16,16S184.837,512,176,512z"/>
<path d="M448,512H288c-35.346,0-64-28.654-64-64V272c0-8.837,7.163-16,16-16h256c8.837,0,16,7.163,16,16v176
	C512,483.346,483.346,512,448,512z M256,288v160c0,17.673,14.327,32,32,32h160c17.673,0,32-14.327,32-32V288H256z"/>
<path d="M240,192c-8.837,0-16-7.163-16-16V96c0-35.346-28.654-64-64-64S96,60.654,96,96v80c0,8.837-7.163,16-16,16s-16-7.163-16-16
	V96c0-53.019,42.981-96,96-96s96,42.981,96,96v80C256,184.837,248.837,192,240,192z"/>
<path d="M432,320c-8.837,0-16-7.163-16-16v-32c0-26.51-21.49-48-48-48s-48,21.49-48,48v32c0,8.837-7.163,16-16,16s-16-7.163-16-16
	v-32c0-44.183,35.817-80,80-80s80,35.817,80,80v32C448,312.837,440.837,320,432,320z"/>
<g>
</g>
<g>
</g>
<g>
</g>
<g>
</g>
<g>
</g>
<g>
</g>
<g>
</g>
<g>
</g>
<g>
</g>
<g>
</g>
<g>
</g>
<g>
</g>
<g>
</g>
<g>
</g>
<g>
</g>
</svg>
